<svg width="20" height="20" viewBox="0 0 20 20" fill="none" xmlns="http://www.w3.org/2000/svg">
<path d="M14.4998 12.3751V4.58341C14.4998 3.37508 13.5415 2.41675 12.3332 2.41675H4.58317C3.37484 2.41675 2.4165 3.37508 2.4165 4.58341V12.3751C2.4165 13.5834 3.37484 14.5417 4.58317 14.5417H12.3748C13.5415 14.5001 14.4998 13.5417 14.4998 12.3751ZM16.3332 6.25008V12.9584C16.3332 14.8334 14.7915 16.3751 12.9165 16.3751H6.20817C5.95817 16.3751 5.83317 16.6667 5.99984 16.8334C6.4165 17.2917 6.99984 17.5834 7.70817 17.5834H13.2915C15.6665 17.5834 17.5832 15.6667 17.5832 13.2917V7.70841C17.5832 7.04175 17.2915 6.41675 16.8332 6.00008C16.6248 5.83341 16.3332 6.00008 16.3332 6.25008Z" fill="white"/>
</svg>
