<svg width="32" height="32" viewBox="0 0 32 32" fill="none" xmlns="http://www.w3.org/2000/svg">
<g clip-path="url(#clip0_16_68)">
<path d="M32 16C32 7.16344 24.8366 0 16 0C7.16344 0 0 7.16344 0 16C0 24.8366 7.16344 32 16 32C24.8366 32 32 24.8366 32 16Z" fill="url(#paint0_linear_16_68)"/>
<path fill-rule="evenodd" clip-rule="evenodd" d="M18.9329 9.53857C18.0345 8.9195 16.9654 8.60054 15.877 8.62646C13.0703 8.69143 10.7996 11.0426 10.8126 13.8757V13.8767C10.8151 14.663 10.9958 15.4383 11.3407 16.1438C11.6857 16.8492 12.1857 17.4663 12.8028 17.9483L12.3411 18.5394L12.8066 17.9513C13.1084 18.1902 13.3526 18.494 13.5212 18.8402C13.6899 19.1863 13.7787 19.5659 13.7814 19.951V19.9561V20.25H14.1875H15.25V15.375C15.25 14.9608 15.5858 14.625 16 14.625C16.4142 14.625 16.75 14.9608 16.75 15.375V20.25H17.8125H18.219V19.9561V19.9547C18.2197 19.5658 18.309 19.1821 18.4801 18.8329C18.6507 18.4846 18.8982 18.1797 19.2041 17.9415C20.0601 17.2656 20.6834 16.3359 20.9848 15.2835C21.2866 14.2304 21.2506 13.1084 20.882 12.077C20.5135 11.0457 19.8313 10.1577 18.9329 9.53857ZM16 21.75H14.1875C14.0494 21.75 13.9375 21.8619 13.9375 22V23.125C13.9375 23.2631 14.0494 23.375 14.1875 23.375H17.8125C17.9506 23.375 18.0625 23.2631 18.0625 23.125V22C18.0625 21.8619 17.9506 21.75 17.8125 21.75H16ZM12.2814 20.4035C12.2814 20.7213 12.3935 21.028 12.5966 21.27C12.4944 21.4922 12.4375 21.7394 12.4375 22V23.125C12.4375 24.0915 13.221 24.875 14.1875 24.875H17.8125C18.779 24.875 19.5625 24.0915 19.5625 23.125V22C19.5625 21.7395 19.5056 21.4924 19.4036 21.2703C19.6068 21.0282 19.719 20.7214 19.719 20.4035V19.9575C19.7194 19.7963 19.7564 19.6371 19.8271 19.4927C19.8979 19.3483 20.0004 19.2223 20.1267 19.1243L20.1311 19.1208C21.2358 18.2495 22.0387 17.0513 22.4268 15.6967C22.8149 14.342 22.7687 12.8991 22.2946 11.5723C21.8204 10.2454 20.9423 9.10159 19.784 8.30343C18.6259 7.50533 17.2466 7.09353 15.8418 7.12688C12.2068 7.2113 9.29641 10.2431 9.31257 13.8815C9.31587 14.8944 9.54856 15.8933 9.99318 16.8026C10.4374 17.7112 11.0816 18.5067 11.8773 19.1288C12.0017 19.2276 12.1027 19.3534 12.1728 19.4972C12.2428 19.6409 12.28 19.7987 12.2814 19.959V20.4035Z" fill="white"/>
</g>
<defs>
<linearGradient id="paint0_linear_16_68" x1="1.22823e-06" y1="32.5714" x2="37.0812" y2="29.9989" gradientUnits="userSpaceOnUse">
<stop stop-color="#F40F67"/>
<stop offset="0.44027" stop-color="#C73BC2"/>
<stop offset="1" stop-color="#04FBFA"/>
</linearGradient>
<clipPath id="clip0_16_68">
<rect width="32" height="32" fill="white"/>
</clipPath>
</defs>
</svg>
