<svg width="14" height="18" viewBox="0 0 14 18" fill="none" xmlns="http://www.w3.org/2000/svg">
<path fill-rule="evenodd" clip-rule="evenodd" d="M9.6204 2.41357C8.722 1.7945 7.6529 1.47554 6.5645 1.50146C3.7578 1.56643 1.4871 3.9176 1.5001 6.7507V6.7517C1.5026 7.538 1.6833 8.3133 2.0282 9.0188C2.3732 9.7242 2.8732 10.3413 3.4903 10.8233L3.0286 11.4144L3.4941 10.8263C3.7959 11.0652 4.0401 11.369 4.2087 11.7152C4.3774 12.0613 4.4662 12.4409 4.4689 12.826V12.8311V13.125H4.875H5.9375V8.25C5.9375 7.8358 6.2733 7.5 6.6875 7.5C7.1017 7.5 7.4375 7.8358 7.4375 8.25V13.125H8.5H8.9065V12.8311V12.8297C8.9072 12.4408 8.9965 12.0571 9.1676 11.7079C9.3382 11.3596 9.5857 11.0547 9.8916 10.8165C10.7476 10.1406 11.3709 9.2109 11.6723 8.1585C11.9741 7.1054 11.9381 5.9834 11.5695 4.952C11.201 3.9207 10.5188 3.0327 9.6204 2.41357ZM6.6875 14.625H4.875C4.7369 14.625 4.625 14.7369 4.625 14.875V16C4.625 16.1381 4.7369 16.25 4.875 16.25H8.5C8.6381 16.25 8.75 16.1381 8.75 16V14.875C8.75 14.7369 8.6381 14.625 8.5 14.625H6.6875ZM2.9689 13.2785C2.9689 13.5963 3.081 13.903 3.2841 14.145C3.1819 14.3672 3.125 14.6144 3.125 14.875V16C3.125 16.9665 3.9085 17.75 4.875 17.75H8.5C9.4665 17.75 10.25 16.9665 10.25 16V14.875C10.25 14.6145 10.1931 14.3674 10.0911 14.1453C10.2943 13.9032 10.4065 13.5964 10.4065 13.2785V12.8325C10.4069 12.6713 10.4439 12.5121 10.5146 12.3677C10.5854 12.2233 10.6879 12.0973 10.8142 11.9993L10.8186 11.9958C11.9233 11.1245 12.7262 9.9263 13.1143 8.5717C13.5024 7.217 13.4562 5.7741 12.9821 4.4473C12.5079 3.1204 11.6298 1.97659 10.4715 1.17843C9.3134 0.380326 7.9341 -0.031473 6.5293 0.00187701C2.8943 0.086297 -0.016093 3.1181 6.69828e-05 6.7565C0.00336698 7.7694 0.236058 8.7683 0.680678 9.6776C1.1249 10.5862 1.7691 11.3817 2.5648 12.0038C2.6892 12.1026 2.7902 12.2284 2.8603 12.3722C2.9303 12.5159 2.9675 12.6737 2.9689 12.834V13.2785Z" fill="black"/>
</svg>
