<svg width="37" height="32" viewBox="0 0 37 32" fill="none" xmlns="http://www.w3.org/2000/svg">
<path d="M25.8357 3.60808C27.8667 3.72036 29.771 4.63084 31.1337 6.1411C32.4963 7.65137 33.2068 9.63899 33.1104 11.6708C33.1104 16.4176 29.0126 19.3334 25.0801 22.8301C21.1986 26.296 19.1079 28.1904 18.4312 28.6277C17.6941 28.1502 15.1198 25.8108 11.7822 22.8301C7.83275 19.3195 3.75193 16.3759 3.75193 11.6708C3.65546 9.63899 4.36597 7.65137 5.72862 6.1411C7.09127 4.63084 8.99561 3.72036 11.0266 3.60808C12.1518 3.57398 13.2665 3.83242 14.2618 4.35811C15.2571 4.88381 16.099 5.65879 16.7052 6.60728C18.0031 8.42287 18.2195 9.33143 18.4358 9.33143C18.6521 9.33143 18.8653 8.42287 20.1509 6.60264C20.7537 5.64977 21.5959 4.87172 22.5934 4.34624C23.591 3.82075 24.7089 3.56622 25.8357 3.60808ZM25.8357 0.51772C24.4325 0.472796 23.0373 0.74499 21.754 1.31403C20.4706 1.88307 19.3322 2.7343 18.4234 3.80432C17.5154 2.73741 16.3793 1.88815 15.099 1.31929C13.8188 0.750419 12.427 0.476484 11.0266 0.51772C8.17558 0.629207 5.48466 1.86509 3.54231 3.95512C1.59995 6.04515 0.56421 8.81926 0.661565 11.6708C0.661565 17.2489 4.60178 20.6746 8.41065 23.9859C8.84794 24.3661 9.28986 24.7493 9.72869 25.1402L11.3156 26.5587C13.0463 28.2055 14.8606 29.762 16.7515 31.222C17.2518 31.546 17.8351 31.7183 18.4312 31.7183C19.0272 31.7183 19.6105 31.546 20.1108 31.222C22.0619 29.7174 23.9321 28.1108 25.7136 26.4088L27.1383 25.1356C27.591 24.7338 28.0499 24.3336 28.5057 23.9396C32.1122 20.8106 36.2007 17.2644 36.2007 11.6708C36.2981 8.81926 35.2624 6.04515 33.32 3.95512C31.3776 1.86509 28.6867 0.629207 25.8357 0.51772Z" fill="url(#paint0_linear_99_139)"/>
<defs>
<linearGradient id="paint0_linear_99_139" x1="-4.93121" y1="-8.4029" x2="39.5295" y2="27.6173" gradientUnits="userSpaceOnUse">
<stop stop-color="#F9CE34"/>
<stop offset="0.584" stop-color="#EE2A7B"/>
<stop offset="1" stop-color="#6228D7"/>
</linearGradient>
</defs>
</svg>
